<?xml version="1.0" standalone="no"?>
<!DOCTYPE svg PUBLIC "-//W3C//DTD SVG 1.1//EN" "http://www.w3.org/Graphics/SVG/1.1/DTD/svg11.dtd" >
<svg xmlns="http://www.w3.org/2000/svg" xmlns:xlink="http://www.w3.org/1999/xlink" version="1.1">
<metadata>
Created by FontForge 20190801 at Tue Sep 21 10:53:19 2010
 By Jimmy Wärting
Benot Sjholm 2010
</metadata>
<defs>
<font id="Ageone" horiz-adv-x="515" >
  <font-face 
    font-family="Ageone"
    font-weight="400"
    font-stretch="normal"
    units-per-em="1000"
    panose-1="0 0 0 0 0 0 0 0 0 0"
    ascent="750"
    descent="-250"
    x-height="546"
    cap-height="748"
    bbox="-1401 -234 896 760"
    underline-thickness="50"
    underline-position="-100"
    unicode-range="U+0020-201D"
  />
<missing-glyph horiz-adv-x="256" 
 />
    <glyph glyph-name=".notdef" horiz-adv-x="256" 
 />
    <glyph glyph-name=".null" horiz-adv-x="0" 
 />
    <glyph glyph-name="nonmarkingreturn" horiz-adv-x="256" 
 />
    <glyph glyph-name="space" unicode=" " horiz-adv-x="256" 
 />
    <glyph glyph-name="space" unicode="&#xa0;" horiz-adv-x="256" 
 />
    <glyph glyph-name="E" unicode="E" horiz-adv-x="540" 
d="M303 700q-24 0 -55.5 -3t-59.5 -16t-46.5 -39t-16.5 -72v-167h278v-32q-14 -7 -35 -11.5t-58 -4.5h-185v-177q-2 -46 16.5 -72t46.5 -39t59.5 -16t55.5 -3h207v-33q-14 -7 -35 -11t-58 -4h-140q-21 0 -47 2t-53 8.5t-53 18.5t-45.5 31.5t-31.5 47.5t-11 67v398
q-1 39 11 67t31.5 47.5t45.5 31.5t53 18.5t53 8.5t47 2h140q37 0 58 -4t35 -11v-33h-207v0z" />
    <glyph glyph-name="F" unicode="F" horiz-adv-x="503" 
d="M308 700q-24 0 -55 -3t-59 -16t-46.5 -39t-17.5 -72v-167h266v-32q-14 -7 -35 -11.5t-58 -4.5h-173v-355h-89v573q-1 58 25 93t63.5 53t79.5 23.5t73 5.5h128q36 0 57.5 -4t35.5 -11v-33h-195v0z" />
    <glyph glyph-name="G" unicode="G" horiz-adv-x="602" 
d="M567 40v-25q-14 -7 -35 -11t-58 -4h-197q-31 0 -73 5.5t-79.5 23.5t-63.5 52.5t-25 93.5v398q-1 58 25 93t63.5 53t79.5 23.5t73 5.5h159q37 0 58 -4t35 -11v-33h-226q-24 0 -55 -3t-59 -16t-46.5 -39t-17.5 -72v-392q-1 -46 17.5 -72t46.5 -39t59 -16t55 -3h178v257
q0 18 -11.5 33.5t-31.5 16.5h-155v28q14 7 35 13.5t58 6.5h52q63 -1 101 -38.5t38 -101.5v-223z" />
    <glyph glyph-name="H" unicode="H" horiz-adv-x="593" 
d="M553 748v-748h-89v355h-335v-355h-88v0v0l-1 748h1h88v-345h335v345h89z" />
    <glyph glyph-name="I" unicode="I" horiz-adv-x="189" 
d="M50 748h89v-748v0h-89v748z" />
    <glyph glyph-name="J" unicode="J" horiz-adv-x="307" 
d="M271 748v-574q1 -39 -11 -67t-32 -47.5t-45.5 -31t-52.5 -18t-53.5 -8.5t-46.5 -2v48q25 1 52 6.5t49.5 19t37 38.5t13.5 66v570h89z" />
    <glyph glyph-name="K" unicode="K" horiz-adv-x="583" 
d="M311 403q31 0 73 -5.5t80 -23.5t63.5 -53t24.5 -93v-228h-89v225q1 46 -17.5 72t-46 39t-59 16t-55.5 3h-156l-1 1l1 -356h-1h-88v748h88v-315l287 281h90l-317 -311h123v0z" />
    <glyph glyph-name="L" unicode="L" horiz-adv-x="405" 
d="M282 48q36 -2 57.5 -5.5t35.5 -10.5v-32h-93q-21 0 -47 2t-53 8.5t-53 18t-45.5 31t-31.5 47.5t-11 67v574h89v-570q-1 -41 13.5 -66t37 -38.5t49.5 -19t52 -6.5z" />
    <glyph glyph-name="M" unicode="M" horiz-adv-x="656" 
d="M616 0v0v0h-89v563l-164 -361h-71l-164 361v-563h-88v0v0v748v0h88l200 -456l199 456h89v-748z" />
    <glyph glyph-name="N" unicode="N" horiz-adv-x="563" 
d="M523 748v-748h-88l-306 575v-575h-89v0v0v748v0h84v0l311 -584v584h88z" />
    <glyph glyph-name="O" unicode="O" horiz-adv-x="572" 
d="M286 760q83 0 132.5 -17t76 -44t34.5 -61.5t8 -69.5v-388q0 -35 -8 -69.5t-34.5 -61.5t-76 -44t-132.5 -17t-132.5 17t-76 44t-34.5 61.5t-8 69.5v388q0 35 8 69.5t34.5 61.5t76 44t132.5 17zM448 570q0 19 -4 43.5t-20 46.5t-48.5 37.5t-89.5 15.5t-89.5 -15.5
t-48.5 -37.5t-20 -46.5t-4 -43.5v-392q0 -19 4 -43.5t20 -46.5t48.5 -37.5t89.5 -15.5t89.5 15.5t48.5 37.5t20 46.5t4 43.5v392z" />
    <glyph glyph-name="P" unicode="P" horiz-adv-x="573" 
d="M301 748q31 0 73 -5.5t80 -23.5t63.5 -52.5t24.5 -93.5v-140q1 -59 -24.5 -93.5t-63.5 -52.5t-80 -23.5t-73 -5.5h-172v-258h-89v748h261zM453 570q1 46 -17.5 72.5t-46 39.5t-59 16t-55.5 3h-146v-395h146q24 0 55.5 3t59 16t46 39t17.5 72v134z" />
    <glyph glyph-name="Q" unicode="Q" horiz-adv-x="572" 
d="M286 760q83 0 132.5 -17t76 -44t34.5 -61.5t8 -69.5v-388q0 -32 -6.5 -63t-26.5 -57.5t-58 -45t-101 -24.5q-3 -53 -29.5 -84.5t-63.5 -48t-77 -21.5t-70 -5v41q23 1 48.5 6.5t47 18t37 34.5t18.5 57q-73 3 -116.5 21t-67 44.5t-30.5 59.5t-7 67v388q0 35 8 69.5t34 61.5
t76 44t133 17zM448 570q0 19 -4 43.5t-20 46.5t-48.5 37.5t-89.5 15.5t-90 -15.5t-49 -37.5t-20 -46.5t-4 -43.5v-392q0 -19 4 -43.5t20 -46.5t49 -37.5t90 -15.5t89.5 15.5t48.5 37.5t20 46.5t4 43.5v392z" />
    <glyph glyph-name="R" unicode="R" horiz-adv-x="578" 
d="M542 487q2 -51 -18 -83.5t-52 -51.5q22 -8 35.5 -22t21 -31t10.5 -37t3 -40v-222h-86v225q0 35 -18.5 61.5t-58.5 26.5h-250v-313h-89v748h261q31 0 73 -5.5t80 -23.5t63.5 -52.5t24.5 -93.5v-86zM275 360q24 0 55.5 3t59 16t46 39t17.5 73v79q1 46 -17.5 72.5t-46 39.5
t-59 16t-55.5 3h-146v-341h146z" />
    <glyph glyph-name="S" unicode="S" horiz-adv-x="558" 
d="M255 701q-20 0 -42 -4.5t-41.5 -15t-34 -28.5t-18.5 -44q-5 -31 1 -52.5t19 -36t30 -23t33 -12.5q32 -10 72 -20t79 -21q26 -7 59.5 -19.5t62.5 -36.5t47.5 -63t14.5 -97q-4 -70 -31.5 -114.5t-65 -70t-78.5 -35t-71 -9.5h-243v27q14 9 35 15t58 6l132 1q43 0 75.5 14
t55 37.5t34 54.5t11.5 66q0 33 -13.5 56t-32 38t-39 23.5t-34.5 11.5t-25.5 6t-25 6.5t-30 8t-40.5 10.5q-23 6 -57 17.5t-64 34t-50.5 58t-16.5 88.5q3 50 26 82.5t57 52t74.5 27.5t79.5 8h199v-26q-14 -10 -35 -15.5t-58 -5.5h-109z" />
    <glyph glyph-name="T" unicode="T" horiz-adv-x="506" 
d="M5 749h496v-48h-204v-701h-88v701h-204v48z" />
    <glyph glyph-name="U" unicode="U" horiz-adv-x="582" 
d="M453 748h89v-568q0 -35 -8 -69.5t-34.5 -61.5t-76 -44t-132.5 -17t-132.5 17t-76 44t-34.5 61.5t-8 69.5v568h89v-570q0 -19 4 -43.5t20 -46.5t48.5 -37.5t89.5 -15.5t89.5 15.5t48.5 37.5t20 46.5t4 43.5v570z" />
    <glyph glyph-name="V" unicode="V" horiz-adv-x="537" 
d="M517 749l-204 -749h-95l-198 749h89l160 -616l159 616h89z" />
    <glyph glyph-name="W" unicode="W" horiz-adv-x="916" 
d="M896 749l-204 -749h-95l-140 531l-145 -531h-95l-197 749h89l159 -616l160 616h88l-14 -53l146 -563l159 616h89z" />
    <glyph glyph-name="X" unicode="X" horiz-adv-x="566" 
d="M423 408q48 -20 78 -59t30 -93v-256h-88v253q0 28 -8.5 52.5t-25 42.5t-40 28.5t-54.5 10.5h-64q-30 0 -54 -10.5t-40 -28.5t-24.5 -42.5t-8.5 -52.5v-253h-89v256q0 54 30.5 93t78.5 59q-48 21 -78.5 59.5t-30.5 93.5v187h89v-184q0 -57 33 -93.5t94 -36.5h64
q62 0 95 36.5t33 93.5v184h88v-187q0 -55 -30 -93.5t-78 -59.5z" />
    <glyph glyph-name="Y" unicode="Y" horiz-adv-x="557" 
d="M527 749v-258q0 -40 -17 -71.5t-45.5 -53.5t-65.5 -34.5t-77 -14.5v-317h-88v317q-40 2 -76.5 14.5t-65 34.5t-45.5 53.5t-17 71.5v258h89v-255q0 -57 33 -93t95 -36h64q61 0 94 36t33 93v255h89z" />
    <glyph glyph-name="Z" unicode="Z" horiz-adv-x="533" 
d="M503 664l-391 -616h391v-48h-473v86l394 613v2h-394v48h473v-85z" />
    <glyph glyph-name="a" unicode="a" horiz-adv-x="516" 
d="M234 544q31 0 73 -5.5t79.5 -23.5t63.5 -53t25 -93v-369h-198q-31 0 -73 5.5t-79.5 23.5t-63.5 52.5t-25 93.5q1 61 32.5 99t81 59t111.5 26.5t125 1.5v4q1 46 -17.5 73t-46.5 40.5t-59 17t-55 3.5h-67v29q14 7 35 11.5t58 4.5zM386 313q-51 3 -97.5 -0.5t-82.5 -18
t-58 -42.5t-23 -74t17.5 -72t46.5 -39t59 -16t55 -3h83v265z" />
    <glyph glyph-name="b" unicode="b" horiz-adv-x="514" 
d="M238 546q30 0 72 -5.5t80 -23.5t63.5 -52.5t24.5 -92.5v-197q1 -59 -24.5 -93.5t-63.5 -52.5t-80 -23.5t-72 -5.5h-198v748h89v-202h109zM390 368q1 46 -17.5 72.5t-46.5 39.5t-59 16t-55 3h-83v-451h83q24 0 55 3t59 16t46.5 39t17.5 72v190z" />
    <glyph glyph-name="c" unicode="c" horiz-adv-x="451" 
d="M303 499q-24 0 -55.5 -3t-59.5 -16t-46.5 -39.5t-16.5 -72.5v-190q-2 -46 16.5 -72t46.5 -39t59.5 -16t55.5 -3h118v-33q-14 -7 -35 -11t-58 -4h-52q-20 0 -46 2t-53 8.5t-53 18.5t-45.5 31.5t-31.5 47.5t-11 67v197q-1 39 11 67t31.5 47.5t45.5 31t53 18t53 8.5t46 2
l52 1q37 0 58 -4.5t35 -11.5v-32h-118v0z" />
    <glyph glyph-name="d" unicode="d" 
d="M36 372q-1 39 11 67t32 47.5t45.5 31t52.5 18t53 8.5t47 2h109v202h89v-748h-198q-31 0 -73 5.5t-79.5 23.5t-63.5 52.5t-25 93.5v197zM125 178q-1 -46 17.5 -72t46.5 -39t59 -16t55 -3h83v451h-83q-24 0 -55 -3t-59 -16t-46.5 -39.5t-17.5 -72.5v-190z" />
    <glyph glyph-name="e" unicode="e" horiz-adv-x="496" 
d="M255 558q41 0 80 -12.5t68.5 -36.5t46.5 -58.5t15 -77.5q-2 -38 -20.5 -66t-47 -47t-64.5 -30t-73 -15.5t-72.5 -2.5t-62.5 9v-50q1 -44 20 -68.5t46 -36.5t57.5 -15t54.5 -3h40h67v-32q-14 -7 -35 -11.5t-58 -4.5h-40q-31 0 -73 5.5t-79.5 23.5t-63.5 52.5t-25 93.5v159
q0 48 15 89t43 71t68.5 47t92.5 17zM381 378q2 33 -7.5 57.5t-27.5 41.5t-41.5 25.5t-49.5 8.5q-60 0 -95 -39t-35 -101v-103q55 -5 101 -1t79.5 17t53.5 36t22 58z" />
    <glyph glyph-name="f" unicode="f" horiz-adv-x="346" 
d="M293 700q-24 0 -47.5 -3t-41.5 -16t-28.5 -39t-8.5 -72v-47h163v-32q-14 -7 -35 -11.5t-58 -4.5h-70v-475h-89v476h-48v47h48v50q-2 58 20.5 93t56 53t72 23.5t68.5 5.5h91v-32q-14 -7 -35 -11.5t-58 -4.5z" />
    <glyph glyph-name="g" unicode="g" 
d="M474 546v-605q1 -59 -24.5 -93.5t-63.5 -52.5t-80 -23t-72 -5v-1q-37 0 -58 4.5t-35 11.5v32h66q24 0 55.5 3t59.5 16t46 39t17 73v55h-108q-21 0 -47 2t-53 8.5t-53 18.5t-45.5 31.5t-31.5 47.5t-11 67v197q-1 39 11 67t31.5 47.5t45.5 31t53 18t53 8.5t47 2h197z
M385 48v451h-82q-24 0 -55.5 -3t-59.5 -16t-46.5 -39.5t-16.5 -72.5v-190q-2 -46 16.5 -72t46.5 -39t59.5 -16t55.5 -3h82z" />
    <glyph glyph-name="h" unicode="h" 
d="M129 0h-89v748h89v-202h109q20 0 46.5 -2t53.5 -8.5t52.5 -18t45.5 -31t32 -47.5t11 -67v-372h-89v368q1 46 -17.5 72.5t-46.5 39.5t-59 16t-55 3h-83v-499z" />
    <glyph glyph-name="i" unicode="i" horiz-adv-x="200" 
d="M150 672q0 -21 -14.5 -35.5t-35.5 -14.5t-35.5 14.5t-14.5 35.5q0 20 14.5 35t35.5 15t35.5 -15t14.5 -35zM144 546h-89v-546h89v546z" />
    <glyph glyph-name="j" unicode="j" horiz-adv-x="207" 
d="M157 672q0 -21 -14.5 -35.5t-35.5 -14.5t-35.5 14.5t-14.5 35.5q0 20 14.5 35t35.5 15t35.5 -15t14.5 -35zM62 546v-601q1 -41 -13.5 -66t-37 -39t-49.5 -19.5t-52 -6.5v-47q31 0 73 5t80 23t63.5 52.5t24.5 93.5v605h-89z" />
    <glyph glyph-name="k" unicode="k" horiz-adv-x="513" 
d="M382 249q30 -9 48.5 -25t29 -35t14.5 -39t4 -35v-115h-86v137q0 30 -16.5 46.5t-38 25t-42.5 10.5t-30 2h-136v-221h-89v748h89v-227q52 37 130 37q41 0 79.5 -12.5t68 -36.5t46.5 -58.5t15 -77.5q-2 -44 -26 -74.5t-60 -49.5zM129 268q54 -5 100 -1t79.5 17t53.5 36
t23 58q2 33 -7.5 57.5t-27.5 41.5t-42 25.5t-49 8.5q-61 0 -95.5 -39t-34.5 -101v-103z" />
    <glyph glyph-name="l" unicode="l" horiz-adv-x="312" 
d="M130 748v-570q-1 -41 13.5 -67t37 -41t49.5 -21.5t52 -7.5v-41q-21 0 -47 2t-53 8.5t-53 18.5t-45.5 31.5t-31.5 47.5t-11 67v573h89z" />
    <glyph glyph-name="m" unicode="m" horiz-adv-x="852" 
d="M129 511v-511h-89v558h217q50 0 95.5 -16.5t76.5 -48.5q31 32 76 48.5t96 16.5q42 0 81 -11.5t69 -34t48 -55t18 -73.5v-384h-89v381q0 57 -33 93.5t-94 36.5q-62 0 -95 -36.5t-33 -93.5v-381h-89v381q0 57 -33 93.5t-94 36.5h-128z" />
    <glyph glyph-name="n" unicode="n" horiz-adv-x="514" 
d="M237 546q31 0 73 -5.5t80 -23.5t63.5 -52.5t24.5 -92.5v-372h-89v368q1 46 -17 72.5t-46 39.5t-59.5 16t-55.5 3h-82v-499h-89v546h197v0z" />
    <glyph glyph-name="o" unicode="o" horiz-adv-x="502" 
d="M251 558q42 0 81 -11.5t69 -34t48 -55t18 -73.5v-223q0 -41 -18 -73t-48 -54.5t-69 -34.5t-81 -12t-81 12t-69 34.5t-48 54.5t-18 73v223q0 41 18 73.5t48 55t69 34t81 11.5zM379 381q0 57 -33 93.5t-95 36.5t-95 -36.5t-33 -93.5v-216q0 -57 33 -93.5t95 -36.5t95 36.5
t33 93.5v216z" />
    <glyph glyph-name="p" unicode="p" 
d="M238 546q20 0 46.5 -2t53.5 -8.5t52.5 -18t45.5 -31t32 -47.5t11 -67v-197q1 -59 -25 -93.5t-63.5 -52.5t-79.5 -23.5t-73 -5.5h-109v-234h-89v780h198zM390 368q1 46 -17.5 72.5t-46.5 39.5t-59 16t-55 3h-83v-451h83q24 0 55 3t59 16t46.5 39t17.5 72v190z" />
    <glyph glyph-name="q" unicode="q" horiz-adv-x="514" 
d="M36 372q-1 39 11 67t31.5 47.5t45.5 31t53 18t53 8.5t46 2h198v-780h-89v234h-109q-20 0 -46 2t-53 8.5t-53 18.5t-45.5 31.5t-31.5 47.5t-11 67v197zM124 178q-1 -46 17.5 -72t46.5 -39t59.5 -16t55.5 -3h82v451h-82q-24 0 -55.5 -3t-59.5 -16t-46.5 -39.5t-17.5 -72.5
v-190z" />
    <glyph glyph-name="r" unicode="r" horiz-adv-x="373" 
d="M270 546h93v-31q-14 -7 -35 -10t-58 -6q-24 -2 -50.5 -8t-48 -20.5t-35 -39t-12.5 -63.5v-368h-89v369q0 30 9 61t34.5 57t71.5 42.5t120 16.5z" />
    <glyph glyph-name="s" unicode="s" horiz-adv-x="482" 
d="M212 499q-44 0 -70.5 -20.5t-24.5 -54.5q2 -28 22.5 -43.5t58.5 -26.5q28 -8 54 -15t46 -12q69 -18 110 -54t43 -107q1 -39 -11.5 -70t-35.5 -52t-54.5 -32.5t-66.5 -11.5h-247v32q14 7 35 11.5t58 4.5h110q34 0 58.5 10t40 26t21.5 36t5 41q-2 38 -31 60t-77 33l-24 6
t-33.5 8.5t-33 8.5t-21.5 6q-18 5 -37.5 14t-36 23.5t-27.5 35t-12 48.5q0 37 14.5 63.5t40.5 44t61.5 26t77.5 8.5h163v-31q-14 -7 -35 -11.5t-58 -4.5h-83z" />
    <glyph glyph-name="t" unicode="t" horiz-adv-x="305" 
d="M129 178q-1 -39 12.5 -63.5t34.5 -39t47 -20t50 -7.5v-48q-21 0 -46 2t-51.5 8.5t-51 18.5t-43.5 31.5t-30 47.5t-10 67v83v113v1v279h88v-154q37 17 77 21.5t69 4.5v-50q-23 -2 -48.5 -7t-46.5 -18t-35.5 -35.5t-15.5 -58.5v-176v0z" />
    <glyph glyph-name="u" unicode="u" horiz-adv-x="503" 
d="M379 546h89v-385q0 -41 -18.5 -73t-48.5 -54.5t-69 -34.5t-81 -12t-81 12t-69 34.5t-48 54.5t-18 73v385h89v-381q0 -57 32.5 -93.5t94.5 -36.5t95 36.5t33 93.5v381z" />
    <glyph glyph-name="v" unicode="v" horiz-adv-x="488" 
d="M286 0h-91l-165 546h86l128 -445l128 445h86z" />
    <glyph glyph-name="w" unicode="w" horiz-adv-x="847" 
d="M379 546h89v-385q0 -41 -18.5 -73t-48.5 -54.5t-69 -34.5t-81 -12t-81 12t-69 34.5t-48 54.5t-18 73v385h89v-381q0 -57 32.5 -93.5t94.5 -36.5t95 36.5t33 93.5v381zM723 546h89v-385q0 -41 -18.5 -73t-48.5 -54.5t-69 -34.5t-81 -12t-81 12t-69 34.5t-48 54.5t-18 73
v385h89v-381q0 -57 32.5 -93.5t94.5 -36.5t95 36.5t33 93.5v381z" />
    <glyph glyph-name="x" unicode="x" horiz-adv-x="503" 
d="M359 300q48 -20 78.5 -59t30.5 -93v-148h-89v145q0 57 -33 93t-94 36q-62 0 -95 -36t-33 -93v-145h-89v148q0 54 30.5 93t78.5 59q-48 21 -78.5 59.5t-30.5 93.5v93h89v-90q0 -57 33 -95.5t95 -38.5q61 0 94 38.5t33 95.5v90h89v-93q0 -55 -30.5 -93.5t-78.5 -59.5z" />
    <glyph glyph-name="y" unicode="y" horiz-adv-x="509" 
d="M468 546v-605q1 -59 -24.5 -93.5t-63.5 -52.5t-80 -23t-73 -5v-1q-36 0 -57.5 4.5t-35.5 11.5v32h70q24 0 55 3t59 16t46.5 39t17.5 73v76q-57 -34 -130 -34q-42 0 -81 12t-69 34.5t-48.5 54.5t-18.5 73v385h89v-381q0 -57 31.5 -94t93.5 -37q61 0 95.5 37t34.5 94v381
h89z" />
    <glyph glyph-name="z" unicode="z" horiz-adv-x="479" 
d="M444 461l-324 -413h231q37 0 58 -4.5t35 -11.5v-32h-409v86l330 411v2h-330v47h409v-85z" />
    <glyph glyph-name="D" unicode="D" horiz-adv-x="577" 
d="M291 748q83 0 132.5 -17t76 -44t34.5 -61.5t8 -70.5v-363q0 -35 -8 -69.5t-34.5 -61.5t-76 -44t-132.5 -17h-251v748h251zM453 557q0 19 -4 43.5t-20 46.5t-48.5 37.5t-89.5 15.5h-162v-652l162 -1q57 0 89.5 15.5t48.5 37.5t20 47t4 43v367z" />
    <glyph glyph-name="period" unicode="." horiz-adv-x="184" 
d="M144 0h-104v133h104v-133z" />
    <glyph glyph-name="comma" unicode="," horiz-adv-x="206" 
d="M166 133v-133q0 -33 -12.5 -58.5t-27.5 -43.5q-18 -21 -39 -37h-47q11 15 21 36q8 18 15 43.5t7 59.5h-21v133h104z" />
    <glyph glyph-name="semicolon" unicode=";" horiz-adv-x="206" 
d="M166 338h-104v133h104v-133zM166 133v-133q0 -33 -12.5 -58.5t-27.5 -43.5q-18 -21 -39 -37h-47q11 15 21 36q8 18 15 43.5t7 59.5h-21v133h104z" />
    <glyph glyph-name="colon" unicode=":" horiz-adv-x="184" 
d="M144 0h-104v133h104v-133zM144 338h-104v133h104v-133z" />
    <glyph glyph-name="hyphen" unicode="-" horiz-adv-x="451" 
d="M411 257h-371v81h371v-81z" />
    <glyph glyph-name="quotesingle" unicode="'" horiz-adv-x="207" 
d="M40 476q11 16 21 36q8 17 15 42.5t7 59.5v134h84v-134q0 -33 -12.5 -58.5t-27.5 -43.5q-18 -21 -40 -36h-47z" />
    <glyph glyph-name="quoteright" unicode="&#x2019;" horiz-adv-x="833" 
d="M494 748v-134q0 -33 -12.5 -58.5t-27.5 -43.5q-18 -21 -39 -36h-47q11 16 21 36q8 17 15 42.5t7 59.5h-21v134h104z" />
    <glyph glyph-name="quotedblleft" unicode="&#x201c;" horiz-adv-x="339" 
d="M40 476v133q0 32 12 58t27 44q18 21 40 37h47q-12 -15 -22 -36q-8 -18 -14.5 -44t-6.5 -59h21v-133h-104zM173 476v133q0 32 12 58t27 44q18 21 40 37h47q-12 -15 -22 -36q-8 -18 -14.5 -44t-6.5 -59h21v-133h-104z" />
    <glyph glyph-name="quotedblright" unicode="&#x201d;" horiz-adv-x="339" 
d="M299 748v-134q0 -33 -12.5 -58.5t-27.5 -43.5q-18 -21 -39 -36h-47q11 16 21 36q8 17 15 42.5t7 59.5h-21v134h104zM166 748v-134q0 -33 -12.5 -58.5t-27.5 -43.5q-18 -21 -39 -36h-47q11 16 21 36q8 17 14.5 42.5t6.5 59.5h-20v134h104z" />
    <glyph glyph-name="exclam" unicode="!" horiz-adv-x="833" 
d="M-654 0q-21 0 -35.5 14.5t-14.5 35.5t14.5 35.5t35.5 14.5t35.5 -14.5t14.5 -35.5t-14.5 -35.5t-35.5 -14.5zM-701 748h95l-10 -542h-75z" />
    <glyph glyph-name="question" unicode="?" horiz-adv-x="833" 
d="M-1251 0q-21 0 -35.5 14.5t-14.5 35.5t14.5 35.5t35.5 14.5t35.5 -14.5t14.5 -35.5t-14.5 -35.5t-35.5 -14.5zM-1068 406q-68 -20 -101.5 -59.5t-33.5 -89.5v-51h-95v61q0 49 18.5 83t45.5 57t57.5 36t54.5 20q40 11 59.5 40t19.5 64q0 59 -41 98t-113 39h-111
q-37 0 -58 6t-35 16v22h231q42 0 81.5 -11.5t70 -35t50 -58.5t20.5 -82q0 -27 -9 -52t-25.5 -45.5t-38.5 -35.5t-47 -22z" />
    <glyph glyph-name="A" unicode="A" horiz-adv-x="582" 
d="M453 0v317h-324v-317h-89v555q0 36 8 70.5t34.5 61.5t76 44t132.5 17t132.5 -17t76 -44t34.5 -61.5t8 -70.5v-555h-89zM453 557q0 19 -4 43.5t-20 46.5t-48.5 37.5t-89.5 15.5t-89.5 -15.5t-48.5 -37.5t-20 -46.5t-4 -43.5v-195h324v195z" />
    <glyph glyph-name="B" unicode="B" horiz-adv-x="579" 
d="M398 420q27 -6 53.5 -17.5t47 -31t33 -48t11.5 -67.5v-81q1 -59 -25 -93.5t-63.5 -52.5t-79.5 -23.5t-73 -5.5h-262v748h207q30 0 72 -5.5t80 -23.5t63.5 -53t24.5 -93v-6q1 -59 -25 -94t-64 -53zM129 435h91q24 0 54.5 4t57.5 17.5t46 40.5t21 73q1 46 -17.5 72
t-46.5 39t-59.5 16t-55.5 3h-91v-265zM454 252q1 46 -17.5 73t-46.5 41t-59 17.5t-55 3.5h-147v-339h147q24 0 55 3t59 16t46.5 39t17.5 72v74z" />
    <glyph glyph-name="C" unicode="C" horiz-adv-x="514" 
d="M303 700q-24 0 -55.5 -3t-59.5 -16t-46.5 -39t-17.5 -72v-392q-1 -46 17.5 -72t46.5 -39t59.5 -16t55.5 -3h181v-33q-14 -7 -35 -11t-58 -4h-115q-20 0 -46 2t-53 8.5t-53 18.5t-45.5 31.5t-31.5 47.5t-11 67v398q-1 39 11 67t31.5 47.5t45.5 31.5t53 18.5t53 8.5t46 2
h115q37 0 58 -4t35 -11v-33h-181v0z" />
    </font>
</defs>
</svg>
